<?xml version="1.0" encoding="UTF-8" standalone="no"?>
<svg xmlns:ffdec="https://www.free-decompiler.com/flash" xmlns:xlink="http://www.w3.org/1999/xlink" ffdec:objectType="shape" height="3.75px" width="7.45px" xmlns="http://www.w3.org/2000/svg">
  <g transform="matrix(1.0, 0.0, 0.0, 1.0, 0.0, 0.0)">
    <path d="M3.75 0.75 L5.15 0.0 Q3.8 1.05 3.25 1.3 1.35 2.2 0.05 2.2 2.35 1.5 3.75 0.75 M6.45 0.2 L4.25 1.6 1.35 2.5 Q2.75 2.15 6.45 0.2 M5.7 1.35 L7.45 0.35 5.85 1.5 Q3.4 2.65 2.35 2.7 3.05 2.35 5.7 1.35" fill="#000000" fill-opacity="0.101960786" fill-rule="evenodd" stroke="none"/>
    <path d="M3.05 2.4 Q5.15 3.0 5.65 3.75 3.65 2.8 2.05 2.4 L0.4 1.95 3.05 2.4 M3.1 1.7 Q4.45 2.1 5.55 2.9 4.45 2.25 0.15 1.2 L3.1 1.7 M0.0 0.55 L2.25 0.85 Q4.95 1.65 5.45 2.25 4.7 1.95 2.15 1.0 L0.0 0.55" fill="#000000" fill-opacity="0.101960786" fill-rule="evenodd" stroke="none"/>
  </g>
</svg>
