<?xml version="1.0" encoding="UTF-8" standalone="no"?>
<svg xmlns:ffdec="https://www.free-decompiler.com/flash" xmlns:xlink="http://www.w3.org/1999/xlink" ffdec:objectType="shape" height="73.7px" width="65.05px" xmlns="http://www.w3.org/2000/svg">
  <g transform="matrix(1.0, 0.0, 0.0, 1.0, 13.1, 42.95)">
    <path d="M21.75 -21.8 L24.9 -22.55 25.7 -19.25 24.65 -17.7 21.75 -21.8 M26.3 9.1 L22.25 7.85 28.4 3.95 26.3 9.1" fill="#808080" fill-rule="evenodd" stroke="none"/>
    <path d="M12.2 -19.85 L14.0 -13.3 7.6 -14.7 12.2 -19.85 M12.1 7.0 L12.2 6.85 14.0 13.4 11.75 12.9 12.1 7.0 M10.35 12.6 L7.6 11.95 10.25 9.05 10.35 12.6" fill="#4d4d4d" fill-rule="evenodd" stroke="none"/>
    <path d="M15.85 -3.65 L14.0 -7.1 14.2 -7.65 19.8 -5.4 19.95 -4.75 15.85 -3.65 M27.3 -2.7 L22.45 -6.6 30.65 -8.75 27.3 -2.7 M-6.6 30.75 L-11.45 26.85 -3.25 24.7 -6.6 30.75" fill="#666666" fill-rule="evenodd" stroke="none"/>
    <path d="M36.2 -0.9 L32.9 -7.65 42.65 -6.3 36.3 -0.8 36.25 -0.75 36.2 -0.9 M34.0 24.7 L30.65 17.8 40.4 19.15 34.0 24.7" fill="#5e5e5e" fill-rule="evenodd" stroke="none"/>
    <path d="M41.45 -21.25 L44.35 -19.15 38.75 -14.75 41.45 -21.25" fill="#444444" fill-rule="evenodd" stroke="none"/>
    <path d="M-9.1 -20.25 L2.95 -23.25 4.5 -21.6 -6.6 -17.85 -5.75 -13.95 -6.25 -13.35 -13.1 -19.3 -9.1 -20.25 M6.05 -19.95 L6.4 -19.55 6.15 -19.45 6.05 -19.95 M10.25 9.05 L9.85 -1.9 15.1 -0.65 14.95 -0.05 12.2 4.9 12.1 7.0 11.75 12.9 10.85 28.2 10.35 12.6 10.25 9.05" fill="#65583d" fill-rule="evenodd" stroke="none"/>
    <path d="M4.5 -21.6 L5.2 -21.8 5.9 -20.85 6.05 -19.95 6.15 -19.45 7.15 -12.65 7.6 -9.45 3.95 -0.75 -3.65 -4.95 -5.75 -13.95 -6.6 -17.85 4.5 -21.6" fill="#64643e" fill-rule="evenodd" stroke="none"/>
    <path d="M28.95 -18.45 L27.45 -24.8 28.05 -25.0 47.7 -31.55 49.0 -29.95 51.95 -10.45 45.65 4.3 36.3 -0.8 42.65 -6.3 32.9 -7.65 36.2 -0.9 32.55 -2.85 28.95 -18.45 M41.45 -21.25 L38.75 -14.75 44.35 -19.15 41.45 -21.25" fill="#687645" fill-rule="evenodd" stroke="none"/>
    <path d="M28.05 -25.0 L27.45 -24.8 28.95 -18.45 16.95 -10.2 7.15 -12.65 6.15 -19.45 6.4 -19.55 6.05 -19.95 5.9 -20.85 5.2 -21.8 4.5 -21.6 2.95 -23.25 -9.1 -20.25 -5.65 -42.5 -3.3 -42.95 19.35 -35.35 28.05 -25.0 M12.2 -19.85 L7.6 -14.7 14.0 -13.3 12.2 -19.85 M21.75 -21.8 L24.65 -17.7 25.7 -19.25 24.9 -22.55 21.75 -21.8" fill="#574a39" fill-rule="evenodd" stroke="none"/>
  </g>
</svg>
