<?xml version="1.0" encoding="UTF-8" standalone="no"?>
<svg xmlns:ffdec="https://www.free-decompiler.com/flash" xmlns:xlink="http://www.w3.org/1999/xlink" ffdec:objectType="shape" height="6.95px" width="7.2px" xmlns="http://www.w3.org/2000/svg">
  <g transform="matrix(1.0, 0.0, 0.0, 1.0, 19.5, -14.8)">
    <path d="M-16.25 20.7 L-17.35 21.75 -18.0 21.75 -18.2 21.6 -18.2 21.55 -18.65 21.5 -18.6 21.7 -19.5 21.7 -19.5 21.65 -18.65 20.5 -17.6 20.1 -16.25 20.7" fill="url(#gradient0)" fill-rule="evenodd" stroke="none"/>
    <path d="M-19.5 21.65 L-19.15 20.3 -19.1 20.3 -17.15 19.75 -16.25 20.15 -16.25 20.7 -17.6 20.1 -18.65 20.5 -19.5 21.65" fill="url(#gradient1)" fill-rule="evenodd" stroke="none"/>
    <path d="M-17.7 19.55 L-17.8 19.65 -18.1 19.65 -18.35 19.65 -17.7 19.5 -17.7 19.55" fill="#a38261" fill-rule="evenodd" stroke="none"/>
    <path d="M-19.1 20.3 L-18.6 19.85 -18.35 19.65 -17.85 19.3 -17.5 19.1 -16.6 19.15 -16.1 19.2 -16.2 19.95 -16.25 20.15 -17.15 19.75 -19.1 20.3 M-17.7 19.55 L-17.7 19.5 -18.35 19.65 -18.1 19.65 -17.8 19.65 -17.7 19.55" fill="url(#gradient2)" fill-rule="evenodd" stroke="none"/>
    <path d="M-18.6 19.85 L-18.45 19.0 -17.65 18.45 -17.8 17.6 -17.4 17.3 -16.9 17.3 -16.9 17.9 -17.65 18.45 -17.7 18.65 -17.85 19.3 -18.35 19.65 -18.6 19.85" fill="#9d7c5a" fill-rule="evenodd" stroke="none"/>
    <path d="M-13.65 18.55 L-15.35 19.95 -16.2 19.95 -16.1 19.2 -16.6 19.15 -16.5 18.9 -15.45 18.1 -13.8 18.4 -13.65 18.55" fill="url(#gradient3)" fill-rule="evenodd" stroke="none"/>
    <path d="M-17.85 19.3 L-17.7 18.65 -17.3 18.6 -16.5 18.9 -16.6 19.15 -17.5 19.1 -17.85 19.3" fill="url(#gradient4)" fill-rule="evenodd" stroke="none"/>
    <path d="M-17.7 18.65 L-17.65 18.45 -16.75 18.4 -16.45 18.5 -16.5 18.9 -17.3 18.6 -17.7 18.65" fill="url(#gradient5)" fill-rule="evenodd" stroke="none"/>
    <path d="M-17.65 18.45 L-16.9 17.9 -16.75 17.8 -16.45 17.9 -16.3 18.15 -16.45 18.5 -16.75 18.4 -17.65 18.45" fill="url(#gradient6)" fill-rule="evenodd" stroke="none"/>
    <path d="M-13.5 17.9 L-13.55 18.45 -13.65 18.55 -13.8 18.4 -15.45 18.1 -16.5 18.9 -16.45 18.5 -16.3 18.15 -14.65 17.6 -13.5 17.9" fill="url(#gradient7)" fill-rule="evenodd" stroke="none"/>
    <path d="M-16.45 17.9 L-16.2 17.8 -16.0 17.7 -15.2 17.6 -14.85 16.95 -14.75 16.75 -14.25 16.8 -13.85 16.85 -13.55 17.35 -13.5 17.9 -14.65 17.6 -16.3 18.15 -16.45 17.9" fill="url(#gradient8)" fill-rule="evenodd" stroke="none"/>
    <path d="M-14.85 16.95 L-15.2 17.6 -16.0 17.7 -16.2 17.8 -16.45 17.9 -16.75 17.8 -16.2 16.75 -15.55 16.8 -14.85 16.95" fill="url(#gradient9)" fill-rule="evenodd" stroke="none"/>
    <path d="M-16.9 17.3 L-16.95 16.95 -15.95 16.45 -14.75 16.75 -14.85 16.95 -15.55 16.8 -16.2 16.75 -16.75 17.8 -16.9 17.9 -16.9 17.3" fill="url(#gradient10)" fill-rule="evenodd" stroke="none"/>
    <path d="M-14.25 16.8 L-14.75 16.75 -14.9 16.0 -15.6 15.95 -14.95 15.65 -14.2 15.9 -14.15 16.1 -14.25 16.8" fill="url(#gradient11)" fill-rule="evenodd" stroke="none"/>
    <path d="M-15.6 15.95 L-15.6 15.3 -14.45 15.4 -13.85 15.65 -14.15 15.8 -14.2 15.9 -14.95 15.65 -15.6 15.95" fill="url(#gradient12)" fill-rule="evenodd" stroke="none"/>
    <path d="M-13.55 15.45 L-12.55 15.0 -12.35 16.15 -13.5 15.85 -14.15 16.1 -14.2 15.9 -14.15 15.8 -13.85 15.65 -13.55 15.45" fill="url(#gradient13)" fill-rule="evenodd" stroke="none"/>
    <path d="M-16.95 16.95 L-16.05 15.95 -15.6 15.95 -14.9 16.0 -14.75 16.75 -15.95 16.45 -16.95 16.95" fill="url(#gradient14)" fill-rule="evenodd" stroke="none"/>
    <path d="M-15.6 15.3 L-14.1 14.8 -13.55 15.45 -13.85 15.65 -14.45 15.4 -15.6 15.3" fill="url(#gradient15)" fill-rule="evenodd" stroke="none"/>
    <path d="M-12.3 16.45 L-13.5 17.9 -13.55 17.35 -13.85 16.85 -14.25 16.8 -13.35 16.25 -12.3 16.45" fill="url(#gradient16)" fill-rule="evenodd" stroke="none"/>
    <path d="M-12.35 16.15 L-12.3 16.45 -13.35 16.25 -14.25 16.8 -14.15 16.1 -13.5 15.85 -12.35 16.15" fill="url(#gradient17)" fill-rule="evenodd" stroke="none"/>
    <path d="M-16.25 20.7 L-17.35 21.75 -18.0 21.75 -18.2 21.6 -18.2 21.55 -18.65 21.5 -18.6 21.7 -19.5 21.7 -19.5 21.65 -19.15 20.3 -19.1 20.3 -18.6 19.85 -18.45 19.0 -17.65 18.45 -17.8 17.6 -17.4 17.3 -16.9 17.3 -16.95 16.95 -16.05 15.95 -15.6 15.95 -15.6 15.3 -14.1 14.8 -13.55 15.45 -12.55 15.0 -12.35 16.15 -12.3 16.45 -13.5 17.9 -13.55 18.45 -13.65 18.55 -15.35 19.95 -16.2 19.95 -16.25 20.15 -16.25 20.7 M-18.6 19.85 L-18.35 19.65 -17.85 19.3 -17.5 19.1 -16.6 19.15 -16.5 18.9 -16.45 18.5 -16.75 18.4 -17.65 18.45 -16.9 17.9 -16.9 17.3 M-16.6 19.15 L-16.1 19.2 -16.2 19.95 M-14.85 16.95 L-15.2 17.6 -16.0 17.7 -16.2 17.8 -16.45 17.9 -16.3 18.15 -16.45 18.5 M-13.5 17.9 L-13.55 17.35 -13.85 16.85 -14.25 16.8 -14.75 16.75 -14.85 16.95 M-16.75 17.8 L-16.45 17.9 M-16.75 17.8 L-16.9 17.9 M-13.85 15.65 L-14.15 15.8 -14.2 15.9 -14.15 16.1 -13.5 15.85 -12.35 16.15 M-14.75 16.75 L-14.9 16.0 -15.6 15.95 M-13.85 15.65 L-14.45 15.4 -15.6 15.3 M-14.75 16.75 L-15.95 16.45 -16.95 16.95 M-14.15 16.1 L-14.25 16.8 M-13.55 15.45 L-13.85 15.65" ffdec:has-small-stroke="true" ffdec:original-stroke-width="0.05" fill="none" stroke="#000000" stroke-linecap="round" stroke-linejoin="round" stroke-opacity="0.24313726" stroke-width="1.0"/>
  </g>
  <defs>
    <radialGradient cx="0" cy="0" gradientTransform="matrix(-0.004, -0.0031, 0.0017, -0.0031, -16.95, 20.4)" gradientUnits="userSpaceOnUse" id="gradient0" r="819.2" spreadMethod="pad">
      <stop offset="0.0" stop-color="#ffffff"/>
      <stop offset="1.0" stop-color="#bea282"/>
    </radialGradient>
    <radialGradient cx="0" cy="0" gradientTransform="matrix(-0.0044, -0.0035, 0.0019, -0.0034, -16.65, 20.15)" gradientUnits="userSpaceOnUse" id="gradient1" r="819.2" spreadMethod="pad">
      <stop offset="0.0" stop-color="#ba9c7a"/>
      <stop offset="0.9882352941176471" stop-color="#dcceba"/>
    </radialGradient>
    <radialGradient cx="0" cy="0" gradientTransform="matrix(-0.0038, -0.0029, 0.0016, -0.0029, -18.8, 20.1)" gradientUnits="userSpaceOnUse" id="gradient2" r="819.2" spreadMethod="pad">
      <stop offset="0.0196078431372549" stop-color="#ba9c7a"/>
      <stop offset="1.0" stop-color="#926f4e"/>
    </radialGradient>
    <radialGradient cx="0" cy="0" gradientTransform="matrix(-0.0036, -0.0028, 0.0016, -0.0027, -15.95, 19.75)" gradientUnits="userSpaceOnUse" id="gradient3" r="819.2" spreadMethod="pad">
      <stop offset="0.0" stop-color="#ffffff"/>
      <stop offset="1.0" stop-color="#bea282"/>
    </radialGradient>
    <radialGradient cx="0" cy="0" gradientTransform="matrix(-0.0027, -0.0021, 0.0011, -0.002, -17.0, 18.85)" gradientUnits="userSpaceOnUse" id="gradient4" r="819.2" spreadMethod="pad">
      <stop offset="0.5647058823529412" stop-color="#dcceba"/>
      <stop offset="1.0" stop-color="#bea282"/>
    </radialGradient>
    <radialGradient cx="0" cy="0" gradientTransform="matrix(-0.0017, -0.0013, 7.0E-4, -0.0013, -16.7, 18.6)" gradientUnits="userSpaceOnUse" id="gradient5" r="819.2" spreadMethod="pad">
      <stop offset="0.0" stop-color="#ba9c7a"/>
      <stop offset="0.9882352941176471" stop-color="#dcceba"/>
    </radialGradient>
    <radialGradient cx="0" cy="0" gradientTransform="matrix(-0.0012, -9.0E-4, 5.0E-4, -9.0E-4, -17.3, 18.15)" gradientUnits="userSpaceOnUse" id="gradient6" r="819.2" spreadMethod="pad">
      <stop offset="0.0196078431372549" stop-color="#ba9c7a"/>
      <stop offset="1.0" stop-color="#926f4e"/>
    </radialGradient>
    <radialGradient cx="0" cy="0" gradientTransform="matrix(-0.0038, -0.003, 0.0016, -0.0029, -13.8, 18.05)" gradientUnits="userSpaceOnUse" id="gradient7" r="819.2" spreadMethod="pad">
      <stop offset="0.0" stop-color="#ba9c7a"/>
      <stop offset="0.9882352941176471" stop-color="#dcceba"/>
    </radialGradient>
    <radialGradient cx="0" cy="0" gradientTransform="matrix(-0.0035, -0.0027, 0.0015, -0.0027, -16.1, 18.0)" gradientUnits="userSpaceOnUse" id="gradient8" r="819.2" spreadMethod="pad">
      <stop offset="0.0196078431372549" stop-color="#ba9c7a"/>
      <stop offset="1.0" stop-color="#926f4e"/>
    </radialGradient>
    <radialGradient cx="0" cy="0" gradientTransform="matrix(-0.0025, -0.0019, 0.0011, -0.0019, -15.25, 16.9)" gradientUnits="userSpaceOnUse" id="gradient9" r="819.2" spreadMethod="pad">
      <stop offset="0.0" stop-color="#ffffff"/>
      <stop offset="1.0" stop-color="#bea282"/>
    </radialGradient>
    <radialGradient cx="0" cy="0" gradientTransform="matrix(-0.003, -0.0023, 0.0013, -0.0023, -15.05, 16.8)" gradientUnits="userSpaceOnUse" id="gradient10" r="819.2" spreadMethod="pad">
      <stop offset="0.0" stop-color="#ba9c7a"/>
      <stop offset="0.9882352941176471" stop-color="#dcceba"/>
    </radialGradient>
    <radialGradient cx="0" cy="0" gradientTransform="matrix(-0.0012, -9.0E-4, 5.0E-4, -9.0E-4, -14.6, 16.55)" gradientUnits="userSpaceOnUse" id="gradient11" r="819.2" spreadMethod="pad">
      <stop offset="0.0" stop-color="#ffffff"/>
      <stop offset="1.0" stop-color="#bea282"/>
    </radialGradient>
    <radialGradient cx="0" cy="0" gradientTransform="matrix(-0.0018, -0.0014, 8.0E-4, -0.0014, -14.3, 15.6)" gradientUnits="userSpaceOnUse" id="gradient12" r="819.2" spreadMethod="pad">
      <stop offset="0.0" stop-color="#ba9c7a"/>
      <stop offset="0.9882352941176471" stop-color="#dcceba"/>
    </radialGradient>
    <radialGradient cx="0" cy="0" gradientTransform="matrix(-0.0024, -0.0019, 0.001, -0.0018, -14.0, 15.85)" gradientUnits="userSpaceOnUse" id="gradient13" r="819.2" spreadMethod="pad">
      <stop offset="0.0196078431372549" stop-color="#ba9c7a"/>
      <stop offset="1.0" stop-color="#926f4e"/>
    </radialGradient>
    <radialGradient cx="0" cy="0" gradientTransform="matrix(-0.0024, -0.0019, 0.001, -0.0018, -16.55, 16.65)" gradientUnits="userSpaceOnUse" id="gradient14" r="819.2" spreadMethod="pad">
      <stop offset="0.0196078431372549" stop-color="#ba9c7a"/>
      <stop offset="1.0" stop-color="#926f4e"/>
    </radialGradient>
    <radialGradient cx="0" cy="0" gradientTransform="matrix(-0.0018, -0.0014, 8.0E-4, -0.0013, -15.1, 15.25)" gradientUnits="userSpaceOnUse" id="gradient15" r="819.2" spreadMethod="pad">
      <stop offset="0.0196078431372549" stop-color="#ba9c7a"/>
      <stop offset="1.0" stop-color="#926f4e"/>
    </radialGradient>
    <radialGradient cx="0" cy="0" gradientTransform="matrix(-0.0024, -0.0018, 0.001, -0.0018, -12.85, 16.3)" gradientUnits="userSpaceOnUse" id="gradient16" r="819.2" spreadMethod="pad">
      <stop offset="0.0" stop-color="#ffffff"/>
      <stop offset="1.0" stop-color="#bea282"/>
    </radialGradient>
    <radialGradient cx="0" cy="0" gradientTransform="matrix(-0.0025, -0.002, 0.0011, -0.0019, -12.55, 16.1)" gradientUnits="userSpaceOnUse" id="gradient17" r="819.2" spreadMethod="pad">
      <stop offset="0.0" stop-color="#ba9c7a"/>
      <stop offset="0.9882352941176471" stop-color="#dcceba"/>
    </radialGradient>
  </defs>
</svg>
