<?xml version="1.0" encoding="UTF-8" standalone="no"?>
<svg xmlns:ffdec="https://www.free-decompiler.com/flash" xmlns:xlink="http://www.w3.org/1999/xlink" ffdec:objectType="shape" height="54.45px" width="38.1px" xmlns="http://www.w3.org/2000/svg">
  <g transform="matrix(1.0, 0.0, 0.0, 1.0, 19.65, 47.3)">
    <path d="M-17.0 -42.2 Q-12.4 -45.4 0.65 -45.05 11.3 -44.8 14.75 -43.2 15.8 -34.1 13.15 -34.35 10.5 -34.6 8.5 -34.3 L-2.25 -33.6 Q-11.0 -33.2 -14.15 -33.75 -17.3 -34.35 -17.0 -42.2" fill="#2b688c" fill-rule="evenodd" stroke="none"/>
    <path d="M-18.25 -41.1 L-17.1 -42.85 -16.7 -43.35 Q-13.95 -46.3 -9.8 -46.4 L7.2 -46.8 Q11.3 -46.9 14.4 -44.1 L14.85 -43.65 15.7 -42.6 14.75 -43.2 Q11.3 -44.8 0.65 -45.05 -12.4 -45.4 -17.0 -42.2 L-18.25 -41.1" fill="#85a0a9" fill-rule="evenodd" stroke="none"/>
    <path d="M-18.25 -41.1 L-17.0 -42.2 Q-17.3 -34.35 -14.15 -33.75 -11.0 -33.2 -2.25 -33.6 L8.5 -34.3 Q10.5 -34.6 13.15 -34.35 15.8 -34.1 14.75 -43.2 L15.7 -42.6 16.35 -41.65 17.35 -39.4 17.75 -37.05 17.9 -34.55 17.95 -34.1 Q18.0 -32.25 17.7 -31.6 17.15 -29.3 15.45 -27.45 12.75 -24.45 8.6 -24.35 L-8.4 -23.95 Q-12.55 -23.85 -15.65 -26.7 -17.55 -28.5 -18.4 -30.75 -18.85 -31.4 -18.95 -33.7 L-19.15 -36.15 Q-19.3 -38.85 -18.25 -41.1" fill="#22526f" fill-rule="evenodd" stroke="none"/>
    <path d="M-18.25 -41.1 L-19.35 -41.05" ffdec:has-small-stroke="true" ffdec:original-stroke-width="0.05" fill="none" stroke="#fcc0bf" stroke-linecap="round" stroke-linejoin="round" stroke-width="1.0"/>
    <path d="M-9.8 -46.45 Q-13.95 -46.3 -16.7 -43.3 -19.4 -40.35 -19.15 -36.2 L-18.95 -33.7 Q-18.75 -29.5 -15.65 -26.7 -12.5 -23.85 -8.35 -23.95 L8.65 -24.4 Q12.75 -24.45 15.4 -27.45 18.05 -30.3 17.95 -34.15 L17.9 -34.6 17.75 -37.1 Q17.45 -41.2 14.4 -44.05 11.3 -46.9 7.2 -46.8 L-9.8 -46.45 Z" fill="none" stroke="#694634" stroke-linecap="round" stroke-linejoin="round" stroke-width="1.0"/>
    <path d="M-3.2 -19.4 L0.95 -4.6 0.0 -4.5 -0.7 -4.5 Q-1.85 -4.55 -2.6 -5.4 -3.4 -6.3 -3.35 -7.45 L-3.25 -14.1 -3.2 -19.4" fill="#2b688c" fill-rule="evenodd" stroke="none"/>
    <path d="M-3.2 -19.4 L-3.1 -25.3 -3.05 -26.2 Q-3.0 -27.35 -2.15 -28.15 -1.3 -28.95 -0.1 -28.85 L0.6 -28.8 Q1.75 -28.75 2.55 -27.9 3.3 -27.0 3.25 -25.85 L3.2 -25.3 3.2 -25.25 3.15 -20.0 3.05 -8.5 2.95 -7.1 Q2.85 -6.0 2.05 -5.2 1.55 -4.8 0.95 -4.6 L-3.2 -19.4" fill="#22526f" fill-rule="evenodd" stroke="none"/>
    <path d="M2.95 -7.1 L3.0 -7.95 3.05 -8.5 M-3.2 -19.4 L-3.25 -14.1 -3.35 -7.45 Q-3.4 -6.3 -2.6 -5.4 -1.85 -4.55 -0.7 -4.5" fill="none" stroke="#694634" stroke-linecap="round" stroke-linejoin="round" stroke-width="1.0"/>
    <path d="M2.95 -7.1 L3.05 -8.5 3.15 -20.0 3.2 -25.25 3.2 -25.3 3.25 -25.85 Q3.3 -27.0 2.55 -27.9 1.75 -28.75 0.6 -28.8 L-0.1 -28.85 Q-1.3 -28.95 -2.15 -28.15 -3.0 -27.35 -3.05 -26.2 L-3.1 -25.3 -3.2 -19.4" fill="none" stroke="#694634" stroke-linecap="round" stroke-linejoin="round" stroke-width="1.0"/>
    <path d="M-4.6 -3.95 Q-4.45 -5.3 -3.45 -6.25 -2.35 -7.4 -0.75 -7.4 L0.25 -7.4 Q1.85 -7.4 3.0 -6.25 4.1 -5.15 4.15 -3.5 L4.1 2.75 -4.65 2.75 -4.65 -3.5 -4.6 -3.95" fill="#2b688c" fill-rule="evenodd" stroke="none"/>
    <path d="M-4.6 -3.95 L-4.65 -3.5 -4.65 2.75 M4.1 2.75 L4.15 -3.5" fill="none" stroke="#694634" stroke-linecap="round" stroke-linejoin="round" stroke-width="1.0"/>
    <path d="M2.95 5.6 Q1.65 6.65 -0.2 6.65 -2.05 6.65 -3.35 5.6 -4.6 4.6 -4.6 3.15 -4.6 1.65 -3.35 0.6 -2.05 -0.4 -0.2 -0.35 1.65 -0.4 2.95 0.6 4.25 1.65 4.25 3.15 4.25 4.6 2.95 5.6" fill="#22526f" fill-rule="evenodd" stroke="none"/>
    <path d="M2.95 5.6 Q1.65 6.65 -0.2 6.65 -2.05 6.65 -3.35 5.6 -4.6 4.6 -4.6 3.15 -4.6 1.65 -3.35 0.6 -2.05 -0.4 -0.2 -0.35 1.65 -0.4 2.95 0.6 4.25 1.65 4.25 3.15 4.25 4.6 2.95 5.6 Z" fill="none" stroke="#694634" stroke-linecap="round" stroke-linejoin="round" stroke-width="1.0"/>
  </g>
</svg>
